<mxfile host="app.diagrams.net" agent="Mozilla/5.0 (Windows NT 10.0; Win64; x64) AppleWebKit/537.36 (KHTML, like Gecko) Chrome/140.0.0.0 Safari/537.36" version="28.2.5">
  <diagram name="PÃ¡gina-1" id="lHNBh1hZl1NL_sBnvRLA">
    <mxGraphModel dx="1737" dy="878" grid="1" gridSize="10" guides="1" tooltips="1" connect="1" arrows="1" fold="1" page="1" pageScale="1" pageWidth="827" pageHeight="1169" math="0" shadow="0">
      <root>
        <mxCell id="0" />
        <mxCell id="1" parent="0" />
        <mxCell id="_TuRhUVv6ZyqvZC0eEGq-18" value="" style="edgeStyle=orthogonalEdgeStyle;rounded=0;orthogonalLoop=1;jettySize=auto;html=1;" edge="1" parent="1" source="_TuRhUVv6ZyqvZC0eEGq-1" target="_TuRhUVv6ZyqvZC0eEGq-3">
          <mxGeometry relative="1" as="geometry" />
        </mxCell>
        <mxCell id="_TuRhUVv6ZyqvZC0eEGq-1" value="Dataset" style="shape=cylinder3;whiteSpace=wrap;html=1;boundedLbl=1;backgroundOutline=1;size=15;" vertex="1" parent="1">
          <mxGeometry x="80" y="460" width="101.54" height="110" as="geometry" />
        </mxCell>
        <mxCell id="_TuRhUVv6ZyqvZC0eEGq-19" value="" style="edgeStyle=orthogonalEdgeStyle;rounded=0;orthogonalLoop=1;jettySize=auto;html=1;" edge="1" parent="1" source="_TuRhUVv6ZyqvZC0eEGq-3" target="_TuRhUVv6ZyqvZC0eEGq-4">
          <mxGeometry relative="1" as="geometry" />
        </mxCell>
        <mxCell id="_TuRhUVv6ZyqvZC0eEGq-3" value="Prepare Data" style="rounded=0;whiteSpace=wrap;html=1;" vertex="1" parent="1">
          <mxGeometry x="274" y="480" width="140" height="70" as="geometry" />
        </mxCell>
        <mxCell id="_TuRhUVv6ZyqvZC0eEGq-20" value="" style="edgeStyle=orthogonalEdgeStyle;rounded=0;orthogonalLoop=1;jettySize=auto;html=1;" edge="1" parent="1" source="_TuRhUVv6ZyqvZC0eEGq-4" target="_TuRhUVv6ZyqvZC0eEGq-5">
          <mxGeometry relative="1" as="geometry" />
        </mxCell>
        <mxCell id="_TuRhUVv6ZyqvZC0eEGq-4" value="Train Model" style="rounded=0;whiteSpace=wrap;html=1;" vertex="1" parent="1">
          <mxGeometry x="500" y="480" width="140" height="70" as="geometry" />
        </mxCell>
        <mxCell id="_TuRhUVv6ZyqvZC0eEGq-21" value="" style="edgeStyle=orthogonalEdgeStyle;rounded=0;orthogonalLoop=1;jettySize=auto;html=1;" edge="1" parent="1" source="_TuRhUVv6ZyqvZC0eEGq-5" target="_TuRhUVv6ZyqvZC0eEGq-6">
          <mxGeometry relative="1" as="geometry" />
        </mxCell>
        <mxCell id="_TuRhUVv6ZyqvZC0eEGq-5" value="Test Model" style="rounded=0;whiteSpace=wrap;html=1;" vertex="1" parent="1">
          <mxGeometry x="730" y="480" width="140" height="70" as="geometry" />
        </mxCell>
        <mxCell id="_TuRhUVv6ZyqvZC0eEGq-22" value="" style="edgeStyle=orthogonalEdgeStyle;rounded=0;orthogonalLoop=1;jettySize=auto;html=1;" edge="1" parent="1" source="_TuRhUVv6ZyqvZC0eEGq-6" target="_TuRhUVv6ZyqvZC0eEGq-11">
          <mxGeometry relative="1" as="geometry" />
        </mxCell>
        <mxCell id="_TuRhUVv6ZyqvZC0eEGq-6" value="API" style="rhombus;whiteSpace=wrap;html=1;" vertex="1" parent="1">
          <mxGeometry x="950" y="452.5" width="125" height="125" as="geometry" />
        </mxCell>
        <mxCell id="_TuRhUVv6ZyqvZC0eEGq-8" value="Take and Prepare the Model" style="rounded=0;whiteSpace=wrap;html=1;" vertex="1" parent="1">
          <mxGeometry x="1190" y="340" width="140" height="70" as="geometry" />
        </mxCell>
        <mxCell id="_TuRhUVv6ZyqvZC0eEGq-9" value="Serv the Model" style="rounded=0;whiteSpace=wrap;html=1;" vertex="1" parent="1">
          <mxGeometry x="1190" y="480" width="140" height="70" as="geometry" />
        </mxCell>
        <mxCell id="_TuRhUVv6ZyqvZC0eEGq-10" value="Use the model" style="rounded=0;whiteSpace=wrap;html=1;" vertex="1" parent="1">
          <mxGeometry x="1190" y="620" width="140" height="70" as="geometry" />
        </mxCell>
        <mxCell id="_TuRhUVv6ZyqvZC0eEGq-11" value="Serv the Model" style="rounded=0;whiteSpace=wrap;html=1;" vertex="1" parent="1">
          <mxGeometry x="1190" y="480" width="140" height="70" as="geometry" />
        </mxCell>
        <mxCell id="_TuRhUVv6ZyqvZC0eEGq-12" value="Use the model" style="rounded=0;whiteSpace=wrap;html=1;" vertex="1" parent="1">
          <mxGeometry x="1190" y="620" width="140" height="70" as="geometry" />
        </mxCell>
        <mxCell id="_TuRhUVv6ZyqvZC0eEGq-23" value="" style="edgeStyle=orthogonalEdgeStyle;rounded=0;orthogonalLoop=1;jettySize=auto;html=1;exitX=0.5;exitY=0;exitDx=0;exitDy=0;entryX=0;entryY=0.5;entryDx=0;entryDy=0;" edge="1" parent="1" source="_TuRhUVv6ZyqvZC0eEGq-6" target="_TuRhUVv6ZyqvZC0eEGq-8">
          <mxGeometry relative="1" as="geometry">
            <mxPoint x="1120" y="430" as="sourcePoint" />
            <mxPoint x="1235" y="430" as="targetPoint" />
          </mxGeometry>
        </mxCell>
        <mxCell id="_TuRhUVv6ZyqvZC0eEGq-24" value="" style="edgeStyle=orthogonalEdgeStyle;rounded=0;orthogonalLoop=1;jettySize=auto;html=1;exitX=0.5;exitY=1;exitDx=0;exitDy=0;entryX=0;entryY=0.5;entryDx=0;entryDy=0;" edge="1" parent="1" source="_TuRhUVv6ZyqvZC0eEGq-6" target="_TuRhUVv6ZyqvZC0eEGq-12">
          <mxGeometry relative="1" as="geometry">
            <mxPoint x="1120" y="510" as="sourcePoint" />
            <mxPoint x="1235" y="510" as="targetPoint" />
          </mxGeometry>
        </mxCell>
      </root>
    </mxGraphModel>
  </diagram>
</mxfile>
